<?xml version="1.0" encoding="UTF-8" standalone="no"?>
<!DOCTYPE svg PUBLIC "-//W3C//DTD SVG 20010904//EN"
              "http://www.w3.org/TR/2001/REC-SVG-20010904/DTD/svg10.dtd">

<svg xmlns="http://www.w3.org/2000/svg"
     width="8.26667in" height="11.6933in"
     viewBox="0 0 2480 3508">    
    <path id="triangle-bottom"
        fill="#36bc44" stroke="#36bc44" stroke-width="1"
        d="M 2353.10,676.56
           C 2321.50,686.00 2339.50,680.50 2232.38,717.12
             1768.00,794.00 970.00,1150.00 269.25,1491.00
             596.00,1722.00 896.00,2082.67 966.00,2324.67
             963.33,2384.00 965.00,2343.00 961.00,2440.12
             905.20,2083.03 413.04,1628.36 203.36,1487.88
             446.40,1344.05 1886.86,669.12 2353.10,676.56 Z" />
    <g>  
        <path id="body"
                fill="black" fill-rule="evenodd" stroke="black" stroke-width="1"
                d="M 1841.12,2044.03
                C 1863.00,2017.00 1874.00,2052.00 1871.92,2051.92
                    1872.85,2059.32 1889.00,2083.00 1846.00,2070.00
                    1870.00,2107.00 1862.10,2112.57 1833.00,2085.00
                    1850.00,2130.00 1828.26,2128.28 1812.97,2126.21
                    1799.92,2124.43 1814.00,2103.00 1785.00,2072.00
                    1785.00,2094.00 1770.35,2104.78 1767.71,2101.62
                    1756.21,2087.85 1735.00,2042.00 1795.00,2047.00
                    1797.38,2039.66 1763.90,2033.12 1769.49,2025.25
                    1773.64,2019.39 1804.00,2039.00 1820.00,2005.00
                    1799.00,2001.00 1805.83,1989.87 1806.29,1989.24
                    1813.26,1984.07 1822.00,1979.00 1834.00,1999.00
                    1828.00,1974.00 1838.35,1968.55 1843.00,1966.00
                    1862.00,1984.00 1833.00,1994.00 1841.12,2044.03 Z
                M 959.76,924.96
                C 959.76,924.96 920.08,972.08 920.08,972.08
                    920.08,972.08 927.52,984.48 927.52,984.48
                    927.52,984.48 902.45,1001.84 902.45,1001.84
                    902.45,1001.84 902.45,1014.24 902.45,1014.24
                    902.45,1014.24 853.57,1083.23 853.57,1083.23
                    854.19,1087.37 876.80,1077.12 880.40,1076.23
                    880.40,1076.23 813.89,1176.32 813.89,1176.32
                    813.89,1176.32 830.80,1175.42 830.80,1175.42
                    830.80,1175.42 785.27,1234.72 785.27,1234.72
                    795.73,1246.77 773.76,1267.18 784.35,1280.25
                    766.99,1300.78 763.29,1352.46 770.39,1354.19
                    770.39,1354.19 785.49,1344.05 785.49,1344.05
                    776.41,1378.30 763.62,1419.81 758.66,1448.43
                    762.25,1489.69 781.27,1487.48 781.20,1486.76
                    780.36,1508.54 779.84,1581.22 806.22,1573.31
                    806.22,1573.31 818.40,1656.51 818.40,1656.51
                    818.40,1656.51 835.76,1636.67 835.76,1636.67
                    835.76,1636.67 844.64,1723.46 844.64,1723.46
                    846.62,1738.61 842.21,1753.66 863.04,1748.26
                    866.26,1746.60 872.39,1831.28 845.68,1844.97
                    840.79,1847.87 785.49,1836.86 776.24,1837.53
                    771.48,1843.13 693.71,1830.04 694.62,1828.97
                    622.26,1839.56 663.28,1808.00 627.44,1815.44
                    621.36,1807.38 693.78,1649.07 707.25,1634.63
                    738.82,1634.63 774.78,1524.43 695.22,1540.40
                    743.80,1549.08 701.39,1603.07 679.97,1614.13
                    666.67,1629.00 638.25,1673.64 623.84,1707.22
                    623.84,1707.22 637.76,1585.71 637.76,1585.71
                    700.03,1511.56 654.05,1438.51 613.45,1456.76
                    678.16,1477.96 619.33,1557.76 599.94,1581.44
                    599.94,1581.44 577.17,1732.26 577.17,1732.26
                    573.75,1740.15 558.45,1692.59 560.08,1656.51
                    587.76,1617.94 502.75,1540.87 478.64,1577.15
                    524.82,1574.92 540.19,1637.78 522.19,1683.78
                    516.73,1720.01 582.48,1850.05 586.57,1847.45
                    586.57,1847.45 592.05,1852.41 597.46,1867.73
                    557.33,1884.42 551.01,1920.95 556.66,2028.03
                    593.17,2079.78 521.72,2096.02 516.51,2087.54
                    518.05,2115.04 602.99,2112.86 598.10,2025.28
                    598.10,2025.28 595.20,1951.60 595.20,1951.60
                    595.20,1951.60 637.36,1959.04 637.36,1959.04
                    637.36,1959.04 622.48,2001.20 622.48,2001.20
                    621.76,2012.01 677.93,1989.24 688.32,1987.68
                    671.19,2013.37 689.39,2018.36 699.36,2017.34
                    706.73,1998.62 745.24,1994.97 753.92,1993.76
                    753.92,1993.76 744.00,2033.43 744.00,2033.43
                    741.62,2039.21 809.50,2021.63 817.04,2003.23
                    817.04,2003.23 830.58,2003.45 839.83,2006.38
                    820.21,2023.29 813.44,2045.83 813.44,2045.83
                    824.92,2054.09 896.87,2045.61 910.38,2015.63
                    919.19,2010.87 927.79,2017.37 922.56,2013.60
                    916.43,2017.22 910.23,2075.99 915.12,2073.11
                    915.12,2073.11 917.50,2107.83 917.50,2107.83
                    917.50,2107.83 905.65,2191.47 905.65,2191.47
                    905.65,2191.47 911.87,2182.17 911.28,2189.44
                    910.21,2202.98 907.90,2223.93 907.90,2223.93
                    905.65,2253.91 894.83,2251.66 867.78,2249.18
                    835.98,2214.01 825.39,2222.57 802.85,2253.24
                    802.85,2253.24 762.03,2249.18 727.76,2245.58
                    674.78,2192.59 589.79,2237.22 600.16,2292.00
                    653.55,2212.48 685.05,2276.58 707.25,2278.49
                    707.05,2280.79 802.16,2292.18 802.85,2284.34
                    802.85,2284.34 803.52,2279.16 805.78,2291.78
                    810.22,2259.82 841.39,2230.70 856.96,2283.89
                    881.42,2289.85 948.25,2291.78 952.77,2264.73
                    962.96,2265.39 959.29,2285.60 980.27,2285.48
                    980.27,2285.48 1054.00,2283.37 1054.00,2283.37
                    1103.15,2235.89 1112.85,2240.62 1143.28,2278.93
                    1154.61,2221.85 1091.65,2209.50 1044.08,2251.66
                    1033.04,2255.87 1018.04,2209.38 1024.24,2207.02
                    1024.24,2207.02 1044.08,2207.02 1044.08,2207.02
                    1044.08,2207.02 1029.20,2137.59 1029.20,2137.59
                    1029.20,2137.59 1051.52,2149.98 1051.52,2149.98
                    1051.52,2149.98 1044.08,2125.19 1044.08,2125.19
                    1044.08,2125.19 1056.48,2127.67 1056.48,2127.67
                    1056.48,2127.67 1036.64,2068.15 1036.64,2068.15
                    1036.64,2068.15 1054.00,2070.63 1054.00,2070.63
                    1054.00,2070.63 1040.58,2013.60 1040.58,2013.60
                    1040.58,2013.60 1054.00,1983.84 1054.00,1983.84
                    1054.00,1983.84 1068.88,1988.80 1068.88,1988.80
                    1061.44,1974.14 1058.91,1910.93 1063.92,1906.96
                    1065.93,1911.60 1140.35,1969.63 1153.42,1931.54
                    1162.97,1939.67 1263.36,1958.35 1260.51,1927.47
                    1260.51,1927.47 1304.70,1936.50 1304.70,1936.50
                    1304.70,1936.50 1289.77,1926.21 1297.26,1925.69
                    1309.14,1924.82 1332.28,1936.97 1355.20,1937.17
                    1386.77,1925.81 1436.81,1921.87 1440.88,1926.68
                    1473.79,1924.10 1467.89,1927.52 1470.64,1911.92
                    1470.64,1911.92 1542.56,1921.84 1542.56,1921.84
                    1542.56,1921.84 1535.12,1911.92 1535.12,1911.92
                    1535.12,1911.92 1592.38,1921.84 1592.38,1921.84
                    1592.38,1921.84 1591.42,1911.35 1592.38,1914.40
                    1607.26,1919.14 1601.00,1981.00 1563.93,1931.96
                    1544.88,1943.61 1567.13,2011.76 1567.36,2021.04
                    1567.36,2021.04 1550.00,2018.56 1550.00,2018.56
                    1550.00,2024.58 1549.21,2034.48 1552.46,2039.58
                    1557.27,2047.15 1571.58,2051.86 1577.33,2061.16
                    1582.09,2068.90 1586.51,2099.60 1580.75,2106.86
                    1576.36,2112.42 1564.04,2117.38 1557.44,2120.23
                    1570.58,2137.04 1588.32,2142.74 1599.72,2159.90
                    1603.05,2164.94 1608.11,2172.87 1604.88,2178.92
                    1602.38,2183.66 1591.94,2189.29 1587.20,2192.14
                    1587.20,2192.14 1616.96,2207.89 1616.96,2207.89
                    1616.96,2207.89 1641.76,2226.86 1641.76,2226.86
                    1641.76,2226.86 1619.44,2259.10 1619.44,2259.10
                    1619.44,2259.10 1636.80,2261.58 1636.80,2261.58
                    1636.80,2261.58 1629.36,2276.45 1629.36,2276.45
                    1629.36,2276.45 1691.14,2273.65 1691.14,2273.65
                    1702.64,2271.82 1704.33,2262.87 1713.68,2263.24
                    1718.09,2263.41 1714.80,2276.01 1684.59,2309.81
                    1724.89,2302.37 1724.07,2290.89 1730.59,2290.89
                    1730.59,2290.89 1757.20,2303.96 1736.45,2334.61
                    1754.03,2333.27 1798.22,2286.82 1789.67,2345.89
                    1807.55,2338.35 1825.73,2310.28 1825.73,2310.28
                    1825.73,2310.28 1832.94,2341.38 1832.94,2341.38
                    1838.67,2341.30 1859.55,2267.90 1882.54,2326.50
                    1894.45,2320.05 1902.23,2288.58 1906.45,2286.82
                    1913.22,2283.99 1922.20,2310.82 1927.63,2305.77
                    1926.09,2281.12 1935.27,2249.45 1950.64,2253.02
                    1950.64,2253.02 1959.42,2270.13 1959.42,2270.13
                    1989.18,2250.99 1996.62,2230.01 1995.28,2200.47
                    1995.28,2200.47 2018.72,2177.26 2018.72,2177.26
                    2018.72,2177.26 2035.98,2192.14 2035.98,2192.14
                    2035.98,2192.14 2035.98,2164.86 2035.98,2164.86
                    2035.98,2164.86 2034.05,2125.19 2034.05,2125.19
                    2034.05,2125.19 2041.04,2100.39 2041.04,2100.39
                    2041.04,2100.39 2065.84,2122.71 2065.84,2122.71
                    2065.84,2122.71 2063.36,2075.59 2063.36,2075.59
                    2063.36,2075.59 2073.28,2080.55 2073.28,2080.55
                    2073.28,2080.55 2065.84,2025.99 2065.84,2025.99
                    2065.84,2025.99 2085.68,2030.95 2085.68,2030.95
                    2085.68,2030.95 2078.24,1986.32 2078.24,1986.32
                    2078.24,1986.32 2090.64,1991.28 2090.64,1991.28
                    2090.64,1991.28 2080.72,1944.16 2080.72,1944.16
                    2080.72,1944.16 2105.52,1941.68 2105.52,1941.68
                    2105.52,1941.68 2080.72,1911.92 2080.72,1911.92
                    2092.48,1906.87 2082.03,1893.47 2078.24,1884.65
                    2078.17,1884.67 2097.53,1874.83 2127.69,1867.59
                    2137.61,1868.58 2126.18,1860.54 2120.87,1860.00
                    2120.87,1860.00 2172.28,1810.25 2172.28,1810.25
                    2172.28,1810.25 2179.92,1782.97 2179.92,1782.97
                    2179.92,1782.97 2193.63,1748.26 2193.63,1748.26
                    2193.63,1748.26 2193.63,1725.94 2193.63,1725.94
                    2193.63,1725.94 2204.72,1681.30 2204.72,1681.30
                    2204.72,1681.30 2198.05,1681.45 2198.05,1681.45
                    2198.05,1681.45 2202.24,1631.71 2202.24,1631.71
                    2202.24,1631.71 2192.32,1634.19 2192.32,1634.19
                    2192.32,1634.19 2194.70,1604.43 2194.70,1604.43
                    2194.70,1604.43 2194.70,1572.19 2194.70,1572.19
                    2194.70,1572.19 2177.44,1584.59 2177.44,1584.59
                    2177.44,1584.59 2160.08,1505.24 2160.08,1505.24
                    2160.08,1505.24 2150.16,1515.16 2150.16,1515.16
                    2150.16,1515.16 2120.40,1450.68 2120.40,1450.68
                    2120.40,1450.68 2112.96,1460.60 2112.96,1460.60
                    2112.96,1460.60 2080.30,1420.95 2080.30,1420.95
                    2071.42,1410.76 2075.09,1412.84 2060.88,1398.61
                    2060.88,1398.61 2066.14,1412.10 2066.14,1412.10
                    2066.14,1412.10 2065.84,1418.44 2065.84,1418.44
                    2065.84,1418.44 2026.16,1391.17 2026.16,1391.17
                    2016.61,1395.66 2010.29,1389.55 2001.36,1385.31
                    1986.36,1378.17 1965.97,1365.62 1949.28,1368.85
                    1949.28,1368.85 1964.16,1378.77 1964.16,1378.77
                    1949.28,1380.65 1925.15,1365.67 1912.08,1357.94
                    1887.80,1343.58 1849.39,1316.90 1839.47,1289.49
                    1837.58,1284.26 1835.62,1263.80 1835.03,1257.26
                    1834.38,1250.34 1832.30,1241.56 1833.44,1234.94
                    1835.37,1223.48 1847.80,1208.73 1853.28,1197.74
                    1857.25,1189.78 1857.35,1180.58 1863.25,1173.64
                    1872.75,1162.55 1885.74,1155.98 1897.20,1140.71
                    1897.20,1140.71 1884.80,1140.71 1884.80,1140.71
                    1884.80,1140.71 1926.96,1113.43 1926.96,1113.43
                    1926.96,1113.43 1919.52,1108.47 1919.52,1108.47
                    1933.06,1096.02 1953.87,1082.66 1961.68,1066.31
                    1961.68,1066.31 1954.24,1063.83 1954.24,1063.83
                    1954.24,1063.83 1991.44,1036.56 1991.44,1036.56
                    1991.44,1036.56 1991.44,1034.08 1991.44,1034.08
                    1991.44,1034.08 1986.48,1031.60 1986.48,1031.60
                    1986.48,1031.60 2021.20,1001.84 2021.20,1001.84
                    2021.20,1001.84 2016.24,994.40 2016.24,994.40
                    2016.24,994.40 2070.80,927.44 2070.80,927.44
                    2070.80,927.44 2063.36,924.96 2063.36,924.96
                    2063.36,924.96 2085.68,882.81 2085.68,882.81
                    2075.07,874.75 2085.08,854.14 2087.84,843.13
                    2087.84,843.13 2094.04,815.85 2094.04,815.85
                    2094.04,815.85 2088.16,726.58 2088.16,726.58
                    2088.16,726.58 2075.76,734.02 2075.76,734.02
                    2070.97,713.61 2061.18,693.60 2048.48,676.98
                    2048.48,676.98 2125.36,647.23 2125.36,647.23
                    2116.46,640.93 2110.93,643.63 2100.56,645.07
                    2100.56,645.07 2058.55,650.95 2035.61,654.05
                    1989.41,572.61 2024.13,614.10 1994.81,612.73
                    1937.10,548.70 1977.13,578.54 1947.02,578.46
                    1866.32,532.04 1949.73,581.17 1883.91,564.95
                    1856.95,563.48 1834.38,572.96 1830.24,575.31
                    1830.24,575.31 1852.56,584.41 1852.56,584.41
                    1852.56,584.41 1878.87,602.91 1878.87,602.91
                    1841.35,611.77 1827.66,590.19 1797.45,610.90
                    1798.94,614.52 1822.80,601.85 1838.55,610.58
                    1847.50,612.83 1863.89,610.58 1878.23,611.77
                    1878.23,611.77 1905.61,628.58 1905.61,628.58
                    1856.45,652.73 1862.83,646.06 1835.20,649.71
                    1845.22,667.81 1885.67,655.76 1930.85,665.55
                    1908.41,675.57 1919.32,669.02 1945.31,679.59
                    1935.39,672.30 1586.93,790.06 1585.27,794.43
                    1543.01,770.13 1511.86,656.85 1562.40,652.81
                    1563.79,648.44 1560.84,642.59 1562.40,639.79
                    1492.34,650.00 1326.43,782.43 1296.37,827.36
                    1277.87,826.44 959.98,917.53 959.76,924.96 Z
                M 1956.37,833.21
                C 1864.96,881.27 1836.14,935.50 1834.88,1006.38
                    1838.15,1001.54 1839.86,995.79 1846.98,993.16
                    1856.13,1001.54 1847.13,1021.21 1856.43,1019.49
                    1856.43,1019.49 1862.48,994.40 1862.48,994.40
                    1862.48,994.40 1871.01,996.73 1871.01,996.73
                    1873.02,985.57 1873.64,985.72 1879.84,982.00
                    1881.38,958.44 1887.58,960.15 1904.64,947.28
                    1904.64,947.28 1905.26,957.20 1905.26,957.20
                    1905.26,957.20 1911.61,956.58 1911.61,956.58
                    1919.22,935.18 1923.54,926.82 1934.40,922.48
                    1932.69,920.77 1938.19,903.61 1942.46,907.90
                    1942.46,907.90 1946.65,922.34 1946.65,922.34
                    1944.32,900.46 1948.81,887.30 1956.72,878.32
                    1956.72,878.32 1965.40,894.26 1965.40,894.26
                    1985.41,884.79 1968.18,871.50 1984.62,859.25
                    1984.00,842.98 1971.90,802.83 1988.49,812.28
                    1973.78,798.64 1968.40,771.61 1965.38,750.81
                    1939.96,786.07 1948.86,826.96 1956.37,833.21 Z
                M 1618.55,1401.31
                C 1618.55,1401.31 1593.55,1401.38 1593.55,1401.38
                    1593.55,1401.38 1592.16,1411.01 1592.16,1411.01
                    1539.31,1404.19 1523.29,1413.06 1517.29,1487.88
                    1547.05,1459.06 1609.02,1422.39 1609.52,1433.32
                    1609.52,1433.32 1592.16,1487.88 1592.16,1487.88
                    1603.47,1470.57 1643.64,1461.89 1630.90,1481.38
                    1662.07,1448.05 1652.30,1465.56 1646.87,1517.02
                    1668.10,1503.23 1674.57,1487.83 1713.68,1480.44
                    1713.68,1480.44 1704.23,1527.56 1704.23,1527.56
                    1729.50,1518.26 1778.63,1460.97 1768.19,1505.24
                    1769.08,1526.37 1759.78,1545.88 1773.57,1553.62
                    1781.51,1558.75 1844.03,1537.47 1844.03,1537.47
                    1844.03,1537.47 1835.35,1564.75 1835.35,1564.75
                    1835.35,1564.75 1859.23,1555.45 1859.23,1555.45
                    1864.36,1565.87 1855.19,1582.11 1845.12,1594.51
                    1863.72,1589.85 1896.73,1576.21 1914.56,1585.06
                    1914.56,1585.06 1905.41,1606.29 1905.41,1606.29
                    1905.41,1606.29 1927.43,1599.32 1927.43,1599.32
                    1916.10,1622.88 1887.16,1657.30 1917.98,1651.07
                    1925.25,1644.73 1920.61,1633.72 1927.58,1632.18
                    1936.88,1634.04 1922.94,1654.32 1962.15,1654.03
                    1978.57,1600.56 1990.35,1615.12 1992.06,1613.58
                    1990.82,1636.67 1992.26,1630.54 2006.32,1631.71
                    2006.32,1631.71 2004.78,1613.88 2004.78,1613.88
                    2004.78,1613.88 2013.76,1619.31 2013.76,1619.31
                    2013.76,1619.31 2011.28,1606.91 2011.28,1606.91
                    2017.26,1600.71 2012.82,1596.05 2008.75,1589.55
                    1996.40,1569.71 1995.14,1570.70 1974.08,1562.27
                    1974.08,1562.27 1984.15,1548.16 1984.15,1548.16
                    1971.75,1533.61 1948.81,1543.67 1904.64,1520.12
                    1904.64,1520.12 1909.13,1503.38 1909.13,1503.38
                    1909.65,1504.42 1840.31,1513.05 1827.29,1486.02
                    1827.29,1486.02 1838.77,1473.15 1838.77,1473.15
                    1810.50,1462.46 1783.12,1455.52 1780.89,1445.55
                    1780.89,1445.55 1764.52,1423.55 1764.52,1423.55
                    1764.52,1423.55 1729.80,1396.90 1729.80,1396.90
                    1729.80,1396.90 1748.87,1393.65 1748.87,1393.65
                    1738.78,1374.28 1708.08,1362.10 1703.76,1331.65
                    1703.76,1331.65 1718.64,1339.09 1718.64,1339.09
                    1718.64,1339.09 1699.27,1296.17 1688.41,1270.90
                    1720.65,1301.13 1708.25,1267.65 1705.00,1245.48
                    1663.29,1258.55 1618.99,1323.77 1618.55,1401.31 Z" />
        <path id="head"
        fill="black" stroke="black" stroke-width="1"
        d="M 1194.00,392.25
           C 1171.35,423.87 1129.32,487.50 1133.58,527.53
             1089.86,511.14 1024.44,527.01 979.80,539.03
             979.80,539.03 935.33,555.10 935.33,555.10
             926.26,559.34 914.85,566.71 905.57,568.67
             885.01,572.98 856.17,571.42 847.24,548.88
             844.07,540.87 844.71,530.16 844.14,521.48
             821.95,539.68 817.90,557.36 809.17,563.39
             801.29,568.82 781.75,567.20 778.05,557.04
             775.99,551.41 779.44,539.55 780.58,533.35
             756.40,552.97 760.29,561.20 727.58,565.54
             727.58,565.54 729.81,554.66 729.81,554.66
             722.92,555.57 713.97,555.87 707.89,559.10
             698.39,564.15 698.62,570.20 685.92,572.91
             666.90,576.95 639.82,576.68 620.10,576.35
             610.63,576.21 596.02,575.21 588.73,582.26
             582.50,588.28 578.11,605.42 575.43,614.00
             575.43,614.00 553.46,691.76 553.46,691.76
             562.39,686.43 578.09,671.50 586.02,669.62
             615.68,662.60 610.25,703.74 609.88,720.31
             616.28,712.42 626.97,690.08 631.48,687.62
             636.81,684.75 640.81,689.48 643.14,693.65
             647.40,701.24 652.74,717.50 655.09,726.16
             663.87,712.22 668.14,694.57 670.54,678.37
             681.48,696.70 678.01,709.54 681.63,729.31
             693.68,712.20 694.05,690.72 703.72,688.32
             713.17,685.96 716.87,717.13 718.83,724.47
             718.83,724.47 733.98,694.77 733.98,694.77
             733.98,694.77 744.07,722.86 744.07,722.86
             744.07,722.86 761.14,700.32 761.14,700.32
             761.14,700.32 766.27,719.46 766.27,719.46
             766.27,719.46 779.54,721.05 779.54,721.05
             779.54,721.05 780.48,705.40 780.48,705.40
             780.48,705.40 785.27,704.11 785.27,704.11
             785.27,704.11 815.52,749.92 815.52,749.92
             815.52,749.92 806.57,754.88 806.57,754.88
             799.50,748.43 799.16,748.28 789.63,749.15
             789.63,749.15 788.69,764.82 788.69,764.82
             788.69,764.82 784.37,758.27 784.37,758.27
             784.37,758.27 776.07,765.64 776.07,765.64
             767.29,754.80 762.92,750.01 749.85,744.41
             749.85,744.41 756.45,778.58 756.45,778.58
             756.45,778.58 711.51,754.68 711.51,754.68
             711.51,754.68 721.78,793.01 721.78,793.01
             721.78,793.01 677.98,763.68 677.98,763.68
             680.91,774.59 693.73,804.55 680.21,810.89
             675.20,813.25 670.00,812.21 665.19,809.93
             661.47,808.19 658.42,805.59 655.19,803.16
             655.19,803.16 659.68,819.92 659.68,819.92
             659.68,819.92 599.79,835.96 599.79,835.96
             615.66,889.63 624.51,890.92 745.86,873.51
             734.38,869.47 699.46,846.33 719.82,846.23
             719.82,846.23 818.40,859.25 818.40,859.25
             790.50,846.85 782.09,828.05 798.56,831.35
             798.56,831.35 889.08,843.75 889.08,843.75
             871.42,833.51 853.12,811.71 875.44,815.85
             908.75,822.15 954.18,836.93 954.18,836.93
             949.22,830.11 946.07,818.23 965.54,825.77
             965.54,825.77 960.06,816.00 960.06,816.00
             960.06,816.00 1019.28,823.29 1019.28,823.29
             1031.16,863.61 922.86,933.94 959.61,925.01
             959.61,925.01 1296.74,828.25 1296.74,828.25
             1287.27,813.84 1273.01,806.41 1278.74,784.56
             1279.51,778.21 1292.85,778.95 1320.13,789.67
             1319.66,769.36 1297.39,765.14 1274.27,738.98
             1272.74,721.17 1330.89,734.37 1331.09,736.72
             1296.10,691.37 1306.04,721.17 1264.33,681.03
             1264.33,681.03 1300.09,661.16 1300.09,661.16
             1286.60,652.71 1224.97,629.94 1224.97,629.94
             1224.97,629.94 1248.11,610.92 1248.11,610.92
             1221.15,579.90 1197.27,570.30 1173.71,550.96
             1205.73,513.99 1225.57,486.93 1220.61,445.47
             1216.37,428.86 1208.93,402.55 1194.00,392.25 Z" />
        <path id="tongue"
        fill="#36bc44" stroke="#36bc44" stroke-width="1"
        d="M 254.99,711.53
           C 277.69,710.36 297.23,701.96 320.24,707.49
             357.07,716.36 372.89,744.61 391.64,758.55
             404.17,767.84 415.15,768.07 423.63,773.13
             441.34,783.69 439.58,813.77 462.69,816.15
             479.36,817.86 498.16,797.70 491.29,781.31
             486.65,770.20 474.62,762.51 473.90,754.95
             473.31,748.58 478.44,744.71 483.77,742.72
             501.51,736.13 520.73,749.62 535.61,757.55
             564.30,772.85 600.43,793.68 633.96,786.29
             659.95,780.57 673.59,767.82 700.30,775.95
             700.30,775.95 692.09,762.59 692.09,762.59
             722.90,751.01 725.65,751.53 757.99,750.31
             757.99,750.31 775.62,749.67 775.62,749.67
             786.80,750.54 789.73,755.74 797.92,756.81
             803.22,757.53 811.98,755.05 817.36,753.81
             813.74,745.87 807.96,733.43 800.15,729.04
             785.56,720.83 742.12,728.02 725.67,731.86
             725.67,731.86 723.04,709.54 723.04,709.54
             719.27,718.40 718.31,728.39 711.12,735.41
             704.12,742.25 688.45,747.41 679.10,750.51
             662.36,756.09 654.17,761.25 635.28,759.14
             597.78,754.97 565.37,724.80 529.58,720.70
             508.30,718.27 485.06,722.14 465.94,731.79
             465.94,731.79 441.37,746.52 441.37,746.52
             420.34,754.18 395.44,733.20 380.26,720.58
             356.43,700.72 328.23,684.72 296.21,691.76
             283.07,694.67 260.45,697.79 254.99,711.53 Z" />
    </g>
    <g>
        <path id="snake_mouth"
        fill="black" stroke="black" stroke-width="1"
        d="M 1866.25,571.64
           C 1890.50,571.77 1929.76,580.37 1952.63,618.54
             1920.39,622.53 1921.36,634.61 1907.94,626.72
             1867.34,601.85 1890.18,604.65 1870.34,591.70
             1849.29,575.07 1831.21,571.64 1866.25,571.64 Z" />
        <path id="snake_tongue"
        fill="black" stroke="black" stroke-width="1"
        d="M 1877.14,618.21
           C 1907.54,607.87 1892.17,592.97 1932.34,625.55
             1933.11,625.65 1938.29,623.50 1940.33,620.69
             1894.92,578.44 1898.61,604.85 1864.96,611.87
             1841.50,614.67 1829.20,588.63 1800.18,611.57
             1840.38,594.93 1840.48,629.55 1877.14,618.21 Z" />
    </g>
    <path id="triangle-top"
        fill="#36bc44" stroke="#36bc44" stroke-width="1"
        d="M 2350.00,680.00
           C 2318.40,689.44 2339.50,680.50 2232.38,717.12
             1790.00,984.00 1150.00,1850.00 966.00,2325.00
             962.67,2388.67 966.00,2344.88 962.00,2442.00
             1096.00,1998.00 1766.00,1014.00 2350.00,680.00 Z" />
    <g>
        <path id="logo_eye_top"
        fill="#36bc44" stroke="#36bc44" stroke-width="1"
        d="M 918.72,658.26
           C 1005.29,595.37 1081.95,596.52 1185.89,653.08
             1185.89,653.08 1208.43,633.46 1208.65,633.71
             1208.88,633.94 1191.52,633.24 1191.76,633.24
             1088.94,557.51 1007.33,559.99 898.21,633.94
             898.21,633.94 874.55,633.94 874.55,633.94
             874.55,633.94 918.72,658.26 918.72,658.26 Z" />
        <path id="logo_eye_bottom"
        fill="#36bc44" stroke="#36bc44" stroke-width="1"
        d="M 958.64,665.03
           C 1016.58,692.98 1068.66,709.45 1143.73,658.26
             1143.73,658.26 1102.24,639.34 1102.24,639.34
             1077.44,671.36 1024.46,677.43 994.70,640.23
             994.70,640.23 958.64,665.03 958.64,665.03 Z" />
        <path id="logo_n"
        fill="#36bc44" stroke="#36bc44" stroke-width="1"
        d="M 1203.57,250.93
           C 1203.57,250.93 1162.97,365.77 1162.97,365.77
             1162.97,365.77 1138.17,349.80 1138.17,349.80
             1138.17,349.80 1151.96,281.61 1151.96,281.61
             1151.96,281.61 1034.46,192.04 1034.46,192.04
             1034.46,192.04 1034.63,396.00 1034.63,396.00
             1065.21,406.79 1117.93,433.00 1137.23,446.07
             1137.23,446.07 1125.30,476.12 1125.30,476.12
             1105.14,467.59 1020.99,438.63 964.10,434.44
             964.10,434.44 964.42,56.89 964.42,56.89
             964.42,56.89 1203.57,250.93 1203.57,250.93 Z" />
        <path id="logo_ne"
        fill="#36bc44" fill-rule="evenodd" stroke="#36bc44" stroke-width="1"
        d="M 1216.09,509.47
           C 1248.80,526.98 1340.02,591.93 1372.11,614.99
             1372.11,614.99 1517.76,541.49 1517.76,541.49
             1517.76,541.49 1307.63,363.41 1307.63,363.41
             1307.63,363.41 1216.09,509.47 1216.09,509.47 Z
           M 1276.53,492.36
           C 1276.53,492.36 1376.62,567.65 1376.62,567.65
             1376.62,567.65 1454.64,529.31 1454.64,529.31
             1454.64,529.31 1325.68,424.27 1325.68,424.27
             1325.68,424.27 1276.53,492.36 1276.53,492.36 Z" />
        <path id="logo_se"
        fill="#36bc44" stroke="#36bc44" stroke-width="1"
        d="M 1229.63,797.13
           C 1229.63,797.13 1334.69,1032.04 1334.69,1032.04
             1334.69,1032.04 1474.93,792.17 1474.93,792.17
             1474.93,792.17 1327.92,732.66 1327.92,732.66
             1314.08,746.77 1277.97,779.62 1229.63,797.13 Z
           M 1351.38,789.94
           C 1351.38,789.94 1421.26,822.40 1421.26,822.40
             1421.26,822.40 1352.72,936.92 1352.72,936.92
             1352.72,936.92 1302.22,830.51 1302.22,830.51
             1318.00,821.93 1337.09,806.06 1351.38,789.94 Z" />
        <path id="logo_s"
        fill="#36bc44" stroke="#36bc44" stroke-width="1"
        d="M 989.74,1698.88
           C 989.74,1698.88 1255.77,1266.95 1255.77,1266.95
             1255.77,1266.95 1189.51,1015.35 1189.51,1015.35
             1189.51,1015.35 1154.32,1034.30 1154.32,1034.30
             1154.32,1034.30 1202.58,1246.67 1202.58,1246.67
             1202.58,1246.67 1067.29,1463.53 1067.29,1463.53
             1067.29,1463.53 1065.95,920.67 1065.95,920.67
             1139.61,910.41 1158.04,893.99 1157.49,894.09
             1157.49,894.09 1138.54,826.44 1138.54,826.44
             1138.54,826.44 1086.71,851.61 988.85,855.75
             988.85,855.75 989.74,1698.88 989.74,1698.88 Z" />
    </g>    
    <path id="crown"
        fill="black" stroke="black" stroke-width="1"
        d="M 1006.26,439.22
           C 1006.26,439.22 913.53,395.40 913.53,395.40
             913.53,395.40 966.75,528.42 966.75,528.42
             1024.91,503.62 1074.29,502.73 1114.54,505.95
             1114.86,506.70 1158.16,383.13 1158.16,383.13
             1158.16,383.13 1071.36,435.50 1071.36,435.50
             1071.36,435.50 1033.54,297.58 1033.54,297.58
             1033.54,297.58 1006.26,439.22 1006.26,439.22 Z" />
</svg>
